<svg xmlns="http://www.w3.org/2000/svg" width="1250" height="200" fill="none" viewBox="0 0 1250 200">
  <defs>
    <clipPath id="a">
      <path fill="#fff" d="M0 0h1250v200H0z"/>
    </clipPath>
    <clipPath id="b">
      <path fill="#fff" d="M0 0h1250v386H0z"/>
    </clipPath>
    <clipPath id="e">
      <path fill="#fff" d="M20-80h1384v692H20z"/>
    </clipPath>
    <linearGradient id="c" x1="458.502" x2="504.757" y1="-100.855" y2="369.209" gradientUnits="userSpaceOnUse">
      <stop stop-color="#221F88"/>
      <stop offset=".091" stop-color="#1B248C"/>
      <stop offset=".182" stop-color="#003296"/>
      <stop offset=".273" stop-color="#0043A4"/>
      <stop offset=".364" stop-color="#0057B1"/>
      <stop offset=".455" stop-color="#006BBC"/>
      <stop offset=".545" stop-color="#0080C3"/>
      <stop offset=".636" stop-color="#0093C8"/>
      <stop offset=".727" stop-color="#00A4CB"/>
      <stop offset=".818" stop-color="#1AB1CE"/>
      <stop offset=".909" stop-color="#3DBACF"/>
      <stop offset="1" stop-color="#46BDD0"/>
    </linearGradient>
    <linearGradient id="d" x1="625" x2="625" y1="0" y2="386" gradientUnits="userSpaceOnUse">
      <stop/>
      <stop offset=".372" stop-opacity=".628"/>
      <stop offset="1" stop-opacity="0"/>
    </linearGradient>
  </defs>
  <g clip-path="url(#a)">
    <g clip-path="url(#b)">
      <path fill="url(#c)" d="M1250 0H0v200h1250V0Z"/>
      <path fill="url(#d)" fill-opacity=".5" d="M1250 0H0v386h1250V0Z" style="mix-blend-mode:overlay"/>
    </g>
    <g fill="#fff" clip-path="url(#e)" style="mix-blend-mode:overlay">
      <path fill-opacity=".77" d="M1254.77 360.431c-69.04-18.454-138.08-36.907-175.89-76.89-37.95-39.853-44.67-101.365-97.652-132.761-52.987-31.525-152.246-32.934-199.832-68.047C733.957 47.749 738.191-20.81 742.423-89.37h512.347v449.8Z" opacity=".5"/>
      <path fill-opacity=".7" d="M1283.97 184.867c-45.98-12.302-92.11-24.605-117.36-51.259-25.26-26.656-29.63-67.535-64.96-88.551-35.32-20.888-101.59-21.913-133.268-45.365C936.707-23.628 939.627-69.25 942.399-115h341.571v299.867Z"/>
    </g>
  </g>
</svg>
