<svg xmlns="http://www.w3.org/2000/svg" width="40" height="40" viewBox="0 0 40 40">
  <path d="M15.233 4.434a6.018 6.018 0 0 1 4.254 1.762c.184.184.355.38.513.586a6.016 6.016 0 0 1 4.767-2.349H38.75v31.132H1.25V4.434h13.983ZM3.75 33.065h32.5V29.2H24.767a3.516 3.516 0 0 0-3.517 3.53v.008L20 32.735l-1.25.003v-.008a3.519 3.519 0 0 0-2.168-3.261 3.516 3.516 0 0 0-1.349-.269H3.75v3.865Zm0-6.365h11.483a6.017 6.017 0 0 1 3.517 1.136V10.45a3.517 3.517 0 0 0-3.517-3.516H3.75V26.7ZM24.767 6.934a3.516 3.516 0 0 0-3.517 3.516v17.386a6.016 6.016 0 0 1 3.517-1.136H36.25V6.934H24.767Z"/>
</svg>
