<svg xmlns="http://www.w3.org/2000/svg" width="132" height="132" fill="none" viewBox="0 0 132 132">
  <defs>
    <linearGradient id="a" x1="61.991" x2="61.991" y1="5" y2="81.956" gradientUnits="userSpaceOnUse">
      <stop offset=".07" stop-color="#13E3EE"/>
      <stop offset=".9" stop-color="#00A6F4"/>
    </linearGradient>
  </defs>
  <path fill="url(#a)" d="M92.014 10.465C114.397 20.357 130 42.62 130 68.5c0 35.07-28.654 63.499-64 63.499-35.346 0-64-28.429-64-63.5C2 42.62 17.603 20.358 39.985 10.466l1.288 2.908C20.017 22.773 5.2 43.92 5.2 68.5c0 33.316 27.221 60.324 60.8 60.324 33.58 0 60.8-27.008 60.8-60.324 0-24.58-14.817-45.727-36.073-55.127l1.287-2.908ZM66 5a64.6 64.6 0 0 1 3.95.12h-7.9C63.364 5.04 64.681 5 66 5Z"/>
  <path fill="#fff" d="m90.432 44.894-32.827 59.403h-6.62L83.86 44.894H48v-5.366h42.432v5.366ZM52.568 4.762h3.6v1.69h-3.6v6.858c0 .604.16 1.072.48 1.405.336.318.8.476 1.392.476.192 0 .376-.023.552-.071.192-.063.44-.206.744-.429l.744 1.548c-.416.27-.792.453-1.128.548-.336.111-.68.166-1.032.166-1.168 0-2.072-.301-2.712-.904-.64-.604-.96-1.453-.96-2.548V6.452H48.56v-1.69h2.088V1.047h1.92v3.715Zm24.901-.287c1.12 0 2.088.277 2.904.833.816.54 1.447 1.302 1.895 2.286.448.984.672 2.143.672 3.477h-9.42c.04.781.205 1.464.493 2.047a3.78 3.78 0 0 0 1.463 1.572c.624.35 1.337.524 2.136.524.849 0 1.56-.198 2.137-.595a3.961 3.961 0 0 0 1.368-1.572l1.655.833a5.302 5.302 0 0 1-1.224 1.62 5.247 5.247 0 0 1-1.776 1.071c-.672.254-1.424.381-2.256.381-1.168 0-2.2-.262-3.096-.786a5.76 5.76 0 0 1-2.112-2.214c-.496-.937-.744-2.016-.744-3.239 0-1.222.249-2.301.745-3.238a5.642 5.642 0 0 1 2.088-2.19c.895-.54 1.92-.81 3.072-.81Zm-.024 1.69c-.656 0-1.28.151-1.872.453a3.78 3.78 0 0 0-1.416 1.286c-.292.447-.463.971-.513 1.571h7.241c-.045-.593-.192-1.117-.44-1.571a3.285 3.285 0 0 0-1.225-1.286c-.512-.302-1.103-.453-1.775-.453Zm-16.647.349a4.277 4.277 0 0 1 1.248-1.323c.704-.476 1.552-.714 2.544-.714.928 0 1.744.19 2.448.571.704.365 1.248.953 1.632 1.762.4.81.592 1.874.576 3.191v6.668h-1.92v-6.096c0-1.175-.144-2.072-.432-2.691-.272-.62-.648-1.04-1.128-1.262-.48-.238-1.024-.357-1.632-.357-1.056 0-1.88.373-2.472 1.119-.576.73-.864 1.77-.864 3.12v6.167h-1.92V0h1.92v6.514Z"/>
</svg>
