<svg xmlns="http://www.w3.org/2000/svg" width="40" height="40" viewBox="0 0 40 40">
  <path d="M21.584 26.184h-3.167v-2.5h3.167v2.5ZM20.001 9.367a4.435 4.435 0 0 1 4.433 4.41v.293a4.45 4.45 0 0 1-1.298 3.13l-.001.001-1.32 1.32a1.918 1.918 0 0 0-.564 1.36v1.903h-2.5v-1.9a4.415 4.415 0 0 1 1.299-3.134l1.315-1.315a1.95 1.95 0 0 0 .569-1.368v-.277a1.934 1.934 0 0 0-3.867 0l-2.5-.013a4.434 4.434 0 0 1 4.434-4.41Z"/>
  <path d="M31.217 3a7.617 7.617 0 0 1 7.616 7.616v15.9a7.616 7.616 0 0 1-7.616 7.618h-9.259L10.8 39.665v-5.531H8.866a7.618 7.618 0 0 1-7.616-7.617v-15.9A7.617 7.617 0 0 1 8.866 3h22.35ZM8.867 5.5a5.116 5.116 0 0 0-5.117 5.116v15.9a5.118 5.118 0 0 0 5.116 5.118H13.3v4l8.074-4h9.843a5.118 5.118 0 0 0 5.116-5.117v-15.9A5.116 5.116 0 0 0 31.217 5.5H8.867Z"/>
</svg>
