<svg xmlns="http://www.w3.org/2000/svg" width="24" height="25" fill="none" viewBox="0 0 24 25">
  <path fill="#1D2327" fill-opacity=".33" fill-rule="evenodd" d="M12 2c6.066 0 11 4.935 11 11 0 6.066-4.934 11-11 11-6.065 0-11-4.934-11-11C1 6.935 5.935 2 12 2ZM9.437 22.257A9.6 9.6 0 0 0 12 22.61a9.59 9.59 0 0 0 3.03-.493l-2.856-7.82-2.74 7.961Zm5.715-.182h.008l.012-.006-.02.006ZM3.079 9.436a9.608 9.608 0 0 0 4.394 12.04L3.08 9.436Zm17.696-.114c0 1.009-.189 2.138-.75 3.542v.001l-2.845 8.226a9.6 9.6 0 0 0 3.592-12.017c.002.081.003.164.003.248Zm-8.774-5.93a9.594 9.594 0 0 0-7.877 4.106c.127.003.246.007.353.007.506 0 1.152-.03 1.674-.062.26-.015.49-.03.653-.042l.192-.014.051-.004h.014l.003-.002h.004a.54.54 0 0 1 .417.145.56.56 0 0 1 .166.358.566.566 0 0 1-.106.38.55.55 0 0 1-.388.216h-.006l-.019.003-.068.007a20.72 20.72 0 0 1-.84.07l3.35 9.967 1.98-5.936-1.47-4.025a18.143 18.143 0 0 1-.848-.077l-.064-.007-.017-.002h-.004l-.002-.002a.516.516 0 0 1-.386-.2.563.563 0 0 1-.107-.382.578.578 0 0 1 .163-.364.534.534 0 0 1 .418-.151h.008l.014.001.052.004.195.015c.166.011.397.027.657.042.523.031 1.162.062 1.636.062.506 0 1.153-.03 1.675-.062.26-.015.488-.03.652-.042l.193-.015.051-.004h.019l.003-.001a.54.54 0 0 1 .417.145c.1.097.154.228.165.358a.565.565 0 0 1-.106.38.531.531 0 0 1-.267.19l-.12.026h-.007c-.005 0-.01 0-.019.002l-.068.007a19.083 19.083 0 0 1-.84.07l3.316 9.865.84-2.806h.001c.425-1.361.736-2.303.736-3.11 0-1.167-.417-1.974-.785-2.618-.484-.786-.978-1.508-.978-2.362 0-.885.618-1.727 1.534-1.86A9.568 9.568 0 0 0 12 3.392Z" clip-rule="evenodd"/>
</svg>
