<svg xmlns="http://www.w3.org/2000/svg" width="24" height="25" fill="none" viewBox="0 0 24 25">
  <path fill="#1D2327" fill-opacity=".33" fill-rule="evenodd" d="M9.363 4c3.133 0 5.864 1.596 7.297 3.959.353-.056.71-.084 1.067-.084 3.465 0 6.273 2.602 6.273 5.812 0 3.178-2.753 5.76-6.17 5.81l-.103.001h-.497v.412c0 .602-.526 1.09-1.175 1.09H8.998c-.65 0-1.177-.488-1.177-1.09v-.543C3.94 18.697 1.001 15.541 1 11.75 1 7.47 4.744 4 9.363 4ZM6.214 8.377a.412.412 0 0 0-.397.087.346.346 0 0 0-.093.368l1.467 4.082a.39.39 0 0 0 .378.24.385.385 0 0 0 .364-.256l.528-1.628a.562.562 0 0 1 .387-.36l1.756-.489a.363.363 0 0 0 .275-.336.361.361 0 0 0-.261-.348l-4.404-1.36Z" clip-rule="evenodd"/>
</svg>
